<svg width="76" height="144" viewBox="0 0 76 144" fill="none" xmlns="http://www.w3.org/2000/svg">
<path d="M1.51749e-09 143.983L34.929 143.983C39.2403 143.983 43.0084 141.067 44.0249 136.918C50.0713 112.27 68.2105 40.9122 75.7116 11.5256C77.2013 5.67598 72.7322 -2.85679e-07 66.6332 -8.1887e-07L36.3836 -3.46338e-06C29.4083 27.3905 6.74745 116.436 0 144L1.51749e-09 143.983Z" fill="#1A5695"/>
<path d="M50.8384 10.1066L53.331 10.9422L58.2117 12.4391L61.6979 13.4313C62.0813 13.5358 62.4474 13.6228 62.8309 13.7272C63.1098 13.7969 63.5804 13.9187 64.2253 14.0754C63.9813 14.9457 63.807 15.642 63.6676 16.1642C63.5455 16.669 63.3712 17.3653 63.1795 18.2704C62.9878 19.1582 62.8134 19.9067 62.6566 20.5333C62.43 21.4211 62.2208 22.0651 61.9942 22.4481C61.785 22.8484 61.5061 23.1792 61.1749 23.4751C60.8437 23.7536 60.4951 23.9625 60.1116 24.1191C59.7281 24.2584 59.3273 24.3454 58.874 24.3454C58.4208 24.3454 58.0025 24.3106 57.5667 24.1888C56.6777 23.9625 55.9282 23.5447 55.3007 22.9355C54.6732 22.3262 54.2723 21.5777 54.1154 20.7074C53.9411 19.8371 53.9934 18.9145 54.2374 17.9571C54.3246 17.609 54.464 17.1912 54.6732 16.756C54.9869 16.7735 55.475 16.7909 56.1025 16.7909C56.7475 16.7909 57.2181 16.7909 57.5319 16.7734C57.3924 17.052 57.2878 17.3479 57.2181 17.6612C57.0438 18.3227 57.0787 18.8623 57.3227 19.2626C57.5667 19.663 57.9153 19.9241 58.3685 20.0459C58.5951 20.0982 58.8043 20.1156 58.996 20.0807C59.1878 20.0459 59.3621 19.9763 59.519 19.8371C59.6759 19.7152 59.7804 19.5585 59.8676 19.3671C59.9548 19.193 60.0245 18.9667 60.0768 18.723C60.1291 18.4793 60.1988 18.2356 60.2511 17.9745L60.3905 17.1216C59.1355 16.7212 57.741 16.3035 56.1897 15.8509C53.3658 15.0502 51.6751 14.5802 51.1173 14.4409L49.8274 14.1102L50.3329 12.1432C50.4026 11.8647 50.5769 11.1859 50.8384 10.0718L50.8384 10.1066Z" fill="#1A1B1B"/>
<path d="M47.6311 22.8484L49.7228 23.5621L57.0264 25.8076L60.9832 26.9216C60.7392 27.8442 60.5649 28.5231 60.4429 28.993C60.286 29.6023 60.1291 30.2637 59.9548 30.9948L56.9741 30.0026L49.5834 27.7572L46.6027 26.9216C46.7944 26.2253 46.9513 25.5813 47.0908 25.0069L47.6137 22.8484L47.6311 22.8484Z" fill="#1A1B1B"/>
<path d="M53.0347 31.8826C53.6622 32.1785 54.0805 32.37 54.3246 32.457C54.5686 32.544 54.9347 32.7007 55.4576 32.9096C55.3879 34.9114 55.1961 36.5998 54.8475 37.9576C54.6558 38.7409 54.3943 39.4197 54.0457 40.029C53.7145 40.6382 53.2962 41.0734 52.8081 41.3345C52.32 41.5956 51.7274 41.6478 50.9953 41.4563C50.6292 41.3693 49.8099 41.1082 48.5375 40.673C47.265 40.2379 45.5916 39.7505 43.4999 39.176C43.6742 38.532 43.8486 37.8879 44.0054 37.2439C44.1623 36.6172 44.3192 35.9558 44.4761 35.2595C45.1733 35.538 46.6549 36.008 48.9035 36.6869C48.8513 36.4083 48.8164 36.1821 48.799 36.0428C48.799 35.8861 48.7641 35.625 48.7467 35.2421C48.7467 34.8591 48.7118 34.5632 48.6944 34.3369C48.6769 34.1106 48.6247 33.9192 48.5549 33.7451C48.4852 33.571 48.398 33.4318 48.2934 33.3447C48.1889 33.2577 48.0669 33.1881 47.9274 33.1533C47.7008 33.1011 47.4916 33.1533 47.2825 33.2751C47.0733 33.4144 46.9338 33.6755 46.8293 34.0584C46.7944 34.1977 46.7595 34.3543 46.7595 34.511C46.7595 34.6677 46.7595 34.9114 46.7595 35.2073C46.3063 34.894 45.6091 34.4762 44.7027 33.9714C44.755 33.3796 44.8421 32.8399 44.9641 32.3177C45.1733 31.4996 45.4522 30.8556 45.8183 30.3682C46.1843 29.8808 46.6549 29.5501 47.2302 29.3934C47.8054 29.2193 48.3632 29.2019 48.8687 29.3412C49.1824 29.4108 49.4613 29.5501 49.7402 29.7241C50.0191 29.9156 50.2632 30.1593 50.4898 30.4552C50.7164 30.7511 50.8907 31.0819 51.0127 31.4474C51.1347 31.8129 51.2219 32.2829 51.2567 32.8574C51.309 33.4318 51.2916 34.1629 51.2567 35.0332C51.2393 35.3988 51.2219 35.7295 51.2393 36.0254C51.2567 36.3213 51.2567 36.5476 51.2916 36.6869C51.309 36.8261 51.3613 36.9305 51.4136 37.035C51.4659 37.122 51.5356 37.2091 51.6054 37.2613C51.6751 37.3135 51.7622 37.3483 51.8494 37.3831C52.0934 37.4528 52.32 37.3831 52.5118 37.2091C52.7035 37.035 52.843 36.7391 52.9475 36.3387C53.2264 35.2073 53.2613 33.7277 53.0347 31.9L53.0347 31.8826Z" fill="#1A1B1B"/>
<path d="M38.6366 39.4546C40.2577 39.646 41.2862 39.7505 41.6871 39.7853C41.3907 40.1508 41.1642 40.4815 41.0073 40.7949C40.8504 41.0908 40.7458 41.3693 40.6935 41.5956C40.6238 41.8393 40.6064 42.083 40.6238 42.3093C40.6238 42.5356 40.6761 42.727 40.7458 42.8837C40.8156 43.0403 40.9201 43.2144 41.077 43.4059C41.2339 43.5974 41.3734 43.754 41.5128 43.8585C41.6522 43.9629 41.8265 44.0848 42.0705 44.224L48.1714 43.7714L53.2438 43.3537C52.9824 44.3285 52.808 45.0247 52.7035 45.4251C52.5814 45.8951 52.442 46.5217 52.2503 47.3224C51.7099 47.3224 50.7686 47.3224 49.4439 47.3572C48.1017 47.3921 47.0732 47.3921 46.3237 47.3572C45.9054 47.3572 45.3999 47.305 44.7724 47.2354L45.5045 47.6358C45.6962 47.7576 45.9228 47.8969 46.1668 48.0361C46.4109 48.1928 46.7072 48.3842 47.0558 48.6105L48.6944 49.7072L51.187 51.4653C50.9604 52.2834 50.8035 52.91 50.6989 53.3278C50.6117 53.6933 50.4549 54.3548 50.2283 55.3122L46.3934 52.3182L39.2467 46.8525C38.8458 46.5217 38.5495 46.2084 38.3403 45.9473C38.1486 45.7036 37.9917 45.4425 37.8697 45.164C37.7651 44.9203 37.678 44.6418 37.6257 44.3807C37.5559 44.0151 37.5385 43.6148 37.5385 43.197C37.5385 42.7444 37.6257 42.2919 37.7303 41.8393C37.7825 41.6304 37.8697 41.3693 37.9743 41.0386C38.0963 40.7078 38.1835 40.4467 38.2706 40.2379C38.3578 40.029 38.4798 39.7679 38.6366 39.4546Z" fill="#1A1B1B"/>
<path d="M40.4669 63.9286C40.1008 63.7371 39.177 63.3367 37.7128 62.7101C37.7476 61.9094 37.8174 61.2305 37.8871 60.7083C37.9568 60.1861 38.0788 59.6465 38.2183 59.1069C38.41 58.3236 38.6541 57.6099 38.933 56.9832C39.2119 56.3566 39.543 55.8344 39.9439 55.4166C40.3448 55.0163 40.7807 54.6855 41.2862 54.4767C41.7742 54.2504 42.332 54.1285 42.9421 54.1111C43.5521 54.0937 44.1622 54.1459 44.7549 54.3026C45.5916 54.5115 46.376 54.8944 47.1081 55.434C47.8402 55.9736 48.3631 56.5655 48.6769 57.2095C48.9906 57.8536 49.165 58.5499 49.1824 59.2809C49.1998 60.012 49.1127 60.7605 48.9383 61.4742C48.7466 62.2227 48.4851 62.919 48.1365 63.563C47.7879 64.2071 47.3347 64.6945 46.7769 65.0774C46.2191 65.443 45.6439 65.6518 45.0512 65.7215C44.4586 65.7911 43.8311 65.7215 43.2036 65.5822C42.8201 65.4952 42.4192 65.3385 41.9834 65.1296L43.7265 58.2017C43.6219 58.1669 43.5347 58.1495 43.4476 58.1147C42.7329 57.9406 42.1577 58.0625 41.687 58.4802C41.2164 58.898 40.9026 59.4898 40.7109 60.2209C40.6063 60.6561 40.5192 61.1609 40.4843 61.7527C40.4495 62.3271 40.4495 63.0582 40.4843 63.946L40.4669 63.9286ZM45.1907 58.6543L44.3714 61.9268C44.476 61.9616 44.5806 61.9964 44.6503 62.0138C44.9989 62.1008 45.3127 62.1182 45.5742 62.0486C45.8531 61.9964 46.0797 61.8571 46.2365 61.6657C46.4109 61.4742 46.5329 61.2305 46.6026 60.9346C46.6549 60.7431 46.6723 60.5342 46.6549 60.3428C46.6549 60.1339 46.5852 59.9598 46.498 59.7683C46.4108 59.5943 46.3063 59.4376 46.1668 59.2983C46.0274 59.1591 45.9054 59.0547 45.7659 58.9676C45.6265 58.8806 45.4347 58.7935 45.1907 58.6717L45.1907 58.6543Z" fill="#1A1B1B"/>
<path d="M36.9284 65.3733L41.2513 66.7833L43.7439 67.5144C44.1971 67.6362 44.6678 67.7581 45.1384 67.8799C45.6265 68.0018 46.2191 68.141 46.9338 68.3151C46.7246 69.1158 46.5503 69.7425 46.4283 70.2124C46.2888 70.7521 46.132 71.3961 45.9751 72.1098L44.8595 71.7791C45.0861 72.1098 45.243 72.3709 45.3476 72.5798C45.4521 72.7886 45.5219 72.9975 45.5916 73.2412C45.6613 73.4849 45.6787 73.7286 45.6787 73.9723C45.6787 74.216 45.6439 74.4597 45.5742 74.7208C45.5219 74.9645 45.4173 75.2082 45.2779 75.4867C44.5632 75.3126 43.9531 75.1734 43.4825 75.0864L41.9485 74.773C42.1403 74.4423 42.2797 74.1116 42.3669 73.7982C42.4715 73.3979 42.4889 73.0497 42.454 72.7364C42.4017 72.4231 42.2971 72.1272 42.1228 71.8487C41.9485 71.5702 41.7045 71.3265 41.3733 71.1002C41.0595 70.8739 40.5192 70.6476 39.7697 70.4039C39.0201 70.1602 38.166 69.9165 37.1899 69.6728C36.8412 69.5858 36.4229 69.4988 35.9 69.3943C36.0743 68.7503 36.2486 68.1236 36.4055 67.4622C36.5623 66.8181 36.7367 66.1392 36.911 65.3907L36.9284 65.3733Z" fill="#1A1B1B"/>
<path d="M33.6689 79.1943C35.0982 79.4555 36.2486 79.6469 37.1202 79.7514C36.5972 80.4128 36.2138 81.0047 35.9349 81.5617C35.656 82.1013 35.4642 82.6061 35.3597 83.0413C35.2202 83.6157 35.1853 84.0857 35.2725 84.4686C35.3596 84.8516 35.5688 85.0779 35.9 85.1649C36.0046 85.1997 36.1266 85.1997 36.2312 85.1997C36.3358 85.1997 36.4752 85.1649 36.6321 85.0953C36.789 85.043 36.9633 84.9386 37.155 84.7993L39.2467 83.3372C39.7348 82.989 40.066 82.7627 40.2752 82.6235C40.6935 82.3624 41.077 82.1709 41.4256 82.0491C41.7742 81.9272 42.088 81.8576 42.4192 81.8402C42.7329 81.8402 43.0816 81.8576 43.4128 81.9446C43.8137 82.0491 44.1971 82.2231 44.5458 82.4494C44.8944 82.6931 45.2081 82.989 45.4696 83.3546C45.7311 83.7201 45.9228 84.1727 46.0622 84.6949C46.1843 85.2171 46.2366 85.7741 46.1843 86.3311C46.132 86.8882 46.0448 87.4452 45.9054 88.0196C45.6265 89.1337 45.1907 90.3173 44.5981 91.5706C44.1448 91.4836 43.7091 91.3965 43.3256 91.3269C42.9421 91.2573 42.2623 91.1528 41.2862 91.0136C41.6871 90.474 42.0008 89.9518 42.21 89.4818C42.4192 89.0118 42.5935 88.5766 42.6806 88.2285C42.8027 87.7237 42.8201 87.2711 42.7155 86.8708C42.6109 86.4878 42.4192 86.2615 42.1228 86.1745C41.9834 86.1397 41.8614 86.1397 41.722 86.1571C41.5825 86.1745 41.4082 86.2441 41.199 86.3486C40.9898 86.453 40.7632 86.5922 40.5018 86.7837C40.2403 86.9752 39.8394 87.2711 39.3165 87.6715L38.567 88.2459C38.3403 88.42 38.0788 88.594 37.7651 88.7681C37.4513 88.9422 37.1725 89.0988 36.8761 89.2207C36.5972 89.3425 36.3358 89.4296 36.1266 89.4644C35.9 89.5166 35.6908 89.534 35.4816 89.534C35.2725 89.534 35.0459 89.4992 34.8193 89.447C34.2266 89.2903 33.6863 89.0118 33.2331 88.594C32.7624 88.1763 32.4313 87.6541 32.2047 87.0622C31.9955 86.453 31.8909 85.8263 31.9083 85.1649C31.9257 84.5034 32.0303 83.8246 32.2047 83.1457C32.4661 82.0839 32.9716 80.761 33.6862 79.2118L33.6689 79.1943Z" fill="#1A1B1B"/>
<path d="M31.6818 99.5603C31.4203 99.4559 30.9671 99.2644 30.2873 98.9511L28.7708 98.2896C28.7708 97.193 28.9103 96.1486 29.1543 95.1564C29.3286 94.4427 29.5727 93.8335 29.8516 93.3287C30.1827 92.7369 30.6359 92.2321 31.1937 91.8317C31.7689 91.4313 32.3965 91.1703 33.0763 91.1006C33.8607 90.9962 34.7148 91.0658 35.6038 91.2747C36.423 91.4836 37.1726 91.8143 37.8698 92.2843C38.567 92.7543 39.09 93.3113 39.4386 93.9902C39.7872 94.6516 39.9789 95.3305 39.9789 96.0442C39.9789 96.7578 39.8743 97.4889 39.6826 98.2896C39.5606 98.7596 39.4211 99.2296 39.2468 99.6822C39.0725 100.152 38.8285 100.709 38.4799 101.371L38.2533 101.336C38.0093 101.301 37.7652 101.249 37.5212 101.197C37.2771 101.144 36.8762 101.075 36.3359 100.97L35.4469 100.814C36.0221 99.9607 36.3882 99.16 36.5625 98.4289C36.7019 97.9067 36.7019 97.4193 36.6148 96.9841C36.5102 96.549 36.301 96.1834 35.9524 95.8875C35.6212 95.609 35.2029 95.4001 34.6974 95.2783C34.1919 95.1564 33.7386 95.1216 33.3551 95.2086C32.9717 95.2957 32.6405 95.4871 32.379 95.8179C32.1175 96.1486 31.9258 96.5316 31.8213 96.9667C31.769 97.193 31.7166 97.4715 31.6818 97.7848C31.6469 98.0982 31.6295 98.3767 31.6295 98.6204C31.6295 98.8641 31.6469 99.1774 31.6992 99.5603L31.6818 99.5603Z" fill="#1A1B1B"/>
<path d="M36.9634 109.082C36.7542 109.9 36.4404 110.648 35.9872 111.345C35.5515 112.041 35.0285 112.581 34.4185 112.981C33.8084 113.381 33.1634 113.625 32.4836 113.712C31.8038 113.799 31.0891 113.747 30.357 113.573C29.6423 113.399 29.0148 113.12 28.4222 112.737C27.8295 112.354 27.3415 111.832 26.9057 111.171C26.4874 110.509 26.2259 109.726 26.1562 108.838C26.0865 107.95 26.1561 107.063 26.3827 106.14C26.5919 105.305 26.9232 104.521 27.3589 103.825C27.7947 103.111 28.3176 102.554 28.9103 102.154C29.5029 101.754 30.1653 101.51 30.88 101.405C31.5946 101.301 32.3267 101.353 33.0414 101.527C33.7561 101.701 34.4184 102.015 35.0111 102.432C35.6038 102.85 36.0918 103.407 36.4753 104.086C36.8588 104.765 37.0854 105.548 37.1725 106.436C37.2422 107.324 37.1725 108.194 36.9634 109.082ZM34.0698 108.281C34.1744 107.863 34.157 107.463 34.0175 107.08C33.8781 106.697 33.634 106.366 33.2506 106.088C32.8671 105.809 32.4313 105.618 31.9432 105.496C31.2111 105.322 30.6185 105.357 30.1304 105.618C29.6598 105.879 29.3461 106.297 29.2066 106.836C29.102 107.254 29.1195 107.655 29.2589 108.037C29.3983 108.42 29.6598 108.751 30.0607 109.03C30.4442 109.308 30.8974 109.5 31.3855 109.639C31.7864 109.743 32.1873 109.761 32.5359 109.726C32.9019 109.674 33.2157 109.534 33.4946 109.273C33.7735 109.03 33.9478 108.699 34.0524 108.299L34.0698 108.281Z" fill="#1A1B1B"/>
<path d="M21.9726 124.8C22.1818 124.052 22.3387 123.425 22.4607 122.92C22.6176 122.294 22.7745 121.667 22.9139 121.04L24.2735 121.371C24.0295 121.058 23.8552 120.797 23.7506 120.605C23.646 120.414 23.5589 120.187 23.4892 119.961C23.4195 119.735 23.3846 119.491 23.3671 119.23C23.3497 118.969 23.3671 118.673 23.3671 118.36C23.402 118.029 23.4543 117.716 23.5415 117.385C23.6809 116.863 23.8552 116.393 24.0992 115.958C24.3433 115.522 24.6396 115.174 25.0231 114.878C25.4065 114.6 25.79 114.443 26.191 114.408C26.5919 114.374 27.0451 114.408 27.5331 114.53C27.6551 114.565 27.8294 114.617 28.0735 114.704L30.2872 115.418C31.1065 115.679 32.0129 115.94 33.0065 116.236C33.6166 116.41 34.1918 116.567 34.7496 116.706C34.523 117.524 34.3487 118.22 34.2092 118.795C34.0698 119.369 33.9129 120.013 33.756 120.727L30.0606 119.474C29.5028 119.282 29.1194 119.16 28.9102 119.108C28.701 119.056 28.5616 119.021 28.4919 119.004C27.7946 118.83 27.2891 118.847 26.9754 119.073C26.6616 119.3 26.4524 119.596 26.3478 119.979C26.313 120.135 26.2955 120.309 26.2955 120.466C26.2955 120.64 26.3304 120.797 26.3827 120.971C26.435 121.11 26.5047 121.267 26.5919 121.389C26.6965 121.528 26.8185 121.667 26.9754 121.806C27.1671 121.963 27.3763 122.102 27.6203 122.224C27.9515 122.381 28.3873 122.555 28.9102 122.729C29.2937 122.851 29.9561 123.06 30.8973 123.338L32.9542 123.93C32.7276 124.783 32.5358 125.479 32.4138 126.019C32.2569 126.628 32.1175 127.255 31.9606 127.864C30.3221 127.289 28.7533 126.767 27.2717 126.315C25.79 125.862 24.0121 125.34 21.9901 124.783L21.9726 124.8Z" fill="#1A1B1B"/>
<path d="M22.4782 135.14C21.9553 134.879 21.4324 134.653 20.9269 134.426L19.7764 133.904C19.7938 133.208 19.8287 132.686 19.881 132.303C19.9333 131.92 20.003 131.572 20.0902 131.223C20.2296 130.666 20.4039 130.179 20.6131 129.761C20.8222 129.343 21.0837 129.03 21.4149 128.804C21.7461 128.578 22.0773 128.456 22.4433 128.438C22.8094 128.421 23.158 128.438 23.5415 128.543C23.6112 128.543 23.7158 128.595 23.8901 128.647C24.0644 128.699 24.4305 128.821 25.0057 128.995L28.3699 130.075L28.7534 128.525C29.2066 128.665 29.7992 128.856 30.5313 129.065L31.4377 129.326L31.0194 130.962C31.3157 131.084 31.9606 131.293 32.9716 131.606L32.9019 133.382C32.8845 133.713 32.8671 134.409 32.8496 135.471C31.9955 135.21 31.0717 134.948 30.0781 134.67L29.5029 136.933C28.1433 136.532 27.2369 136.289 26.8011 136.167L27.3763 133.887L24.936 133.138C24.5699 133.034 24.3259 132.964 24.2213 132.947C23.9075 132.86 23.6286 132.842 23.402 132.86C23.1754 132.86 22.9837 132.964 22.8617 133.121C22.7397 133.277 22.6351 133.451 22.5828 133.66C22.5479 133.817 22.5131 133.991 22.4956 134.165C22.4782 134.339 22.4782 134.67 22.4956 135.123L22.4782 135.14Z" fill="#1A1B1B"/>
</svg>
