<svg width="75" height="144" viewBox="0 0 75 144" fill="none" xmlns="http://www.w3.org/2000/svg">
<path d="M75 0.0173645L40.5306 0.0173615C36.276 0.0173611 32.5575 2.93348 31.5544 7.08198C25.5875 31.73 7.68698 103.088 0.284616 132.474C-1.18548 138.324 3.22479 144 9.24353 144L39.0951 144C45.9786 116.609 68.3413 27.5641 75 0L75 0.0173645Z" fill="#1A1B1B"/>
<path d="M28.6236 120.827C28.9897 121.001 29.5126 121.227 30.175 121.523C30.8373 121.819 31.3603 122.028 31.7263 122.15C31.5869 123.612 31.3777 124.9 31.0988 126.014C30.8374 127.076 30.4539 128.051 29.9484 128.904C29.4429 129.757 28.7979 130.488 27.9961 131.114C27.1943 131.724 26.3402 132.089 25.4338 132.211C24.5274 132.333 23.5512 132.263 22.5402 132.002C21.3375 131.706 20.3265 131.201 19.4898 130.523C18.6531 129.844 18.0082 128.991 17.5898 127.999C17.1715 127.006 16.9449 125.979 16.91 124.918C16.8926 123.856 17.0146 122.794 17.2761 121.732C17.5201 120.757 17.9559 119.574 18.566 118.199L19.4026 118.39C19.7687 118.46 20.1696 118.547 20.6228 118.634L21.7732 118.843C21.3898 119.574 21.1109 120.165 20.9191 120.618C20.7274 121.088 20.5879 121.523 20.4833 121.924C20.2567 122.811 20.2393 123.664 20.4136 124.465C20.5879 125.266 20.9714 125.962 21.5466 126.536C22.1219 127.111 22.8191 127.511 23.6558 127.72C24.4053 127.912 25.1026 127.894 25.7301 127.685C26.3576 127.476 26.8805 127.111 27.3337 126.606C27.7695 126.101 28.1007 125.405 28.3273 124.552C28.4493 124.082 28.5365 123.56 28.6062 122.985C28.6759 122.411 28.6933 121.68 28.6933 120.81L28.6236 120.827Z" fill="#15649E"/>
<path d="M32.3539 119.904L30.2622 119.191L22.9586 116.945L19.0018 115.831C19.2458 114.909 19.4201 114.23 19.5421 113.76C19.699 113.151 19.8559 112.489 20.0302 111.758L23.0109 112.75L30.4016 114.996L33.3823 115.831C33.1906 116.527 33.0337 117.172 32.8943 117.746L32.3713 119.904L32.3539 119.904Z" fill="#15649E"/>
<path d="M36.729 102.55C36.5198 103.298 36.363 103.925 36.2409 104.43C36.0841 105.056 35.9272 105.683 35.7877 106.31L34.4281 105.979C34.6721 106.292 34.8465 106.553 34.951 106.745C35.0556 106.954 35.1428 107.163 35.2125 107.389C35.2822 107.615 35.3171 107.859 35.3345 108.12C35.352 108.381 35.3345 108.677 35.3345 109.008C35.2997 109.338 35.2474 109.652 35.1602 109.982C35.0208 110.505 34.8465 110.975 34.6024 111.41C34.3584 111.845 34.0621 112.193 33.6786 112.489C33.2951 112.785 32.9116 112.924 32.5107 112.959C32.1098 112.994 31.6566 112.959 31.1685 112.837C31.0465 112.802 30.8722 112.75 30.6282 112.663L28.4144 111.949C27.5952 111.688 26.6888 111.427 25.6952 111.131C25.0851 110.957 24.5099 110.783 23.9521 110.661C24.1787 109.843 24.353 109.147 24.4925 108.573C24.6319 107.998 24.7888 107.354 24.9456 106.64L28.641 107.894C29.1988 108.085 29.5823 108.207 29.7915 108.259C30.0007 108.311 30.1401 108.346 30.2098 108.364C30.907 108.538 31.4125 108.52 31.7263 108.294C32.0401 108.068 32.2492 107.772 32.3538 107.389C32.3887 107.232 32.4061 107.058 32.4061 106.901C32.4061 106.727 32.3713 106.571 32.319 106.397C32.2667 106.257 32.1969 106.118 32.1098 105.979C32.0052 105.84 31.8832 105.7 31.7263 105.561C31.5346 105.404 31.3254 105.265 31.0814 105.143C30.7502 104.987 30.3144 104.813 29.7915 104.639C29.408 104.517 28.7456 104.308 27.8043 104.029L25.7475 103.438C25.9741 102.585 26.1484 101.888 26.2878 101.349C26.4447 100.739 26.5842 100.113 26.7236 99.5036C28.3621 100.078 29.9309 100.6 31.4126 101.053C32.8942 101.505 34.6547 102.028 36.6941 102.585L36.729 102.55Z" fill="#15649E"/>
<path d="M37.2868 100.357C35.2474 99.6429 32.8768 98.877 30.1401 98.0414C27.4034 97.2059 25.3466 96.6141 23.9347 96.2659C24.1438 95.5 24.3181 94.7863 24.4924 94.1249C24.6493 93.4634 24.8062 92.8368 24.9631 92.1927C25.9567 92.5931 27.0548 92.9934 28.275 93.359C28.3273 92.7323 28.3795 92.2624 28.4318 91.9316C28.4841 91.6009 28.5364 91.2702 28.6236 90.9568C28.885 89.9472 29.2511 89.1117 29.7566 88.4677C30.2621 87.8236 30.9419 87.371 31.8135 87.1099C32.685 86.8488 33.6786 86.8488 34.7767 87.1273C35.8749 87.4058 36.8336 87.8758 37.6354 88.5373C38.4547 89.1987 38.995 89.9472 39.2565 90.7828C39.518 91.6183 39.5354 92.506 39.2914 93.4634C39.2042 93.8116 39.0822 94.1423 38.9253 94.4556C38.7684 94.7689 38.5941 95.03 38.3849 95.2563C38.1758 95.4826 37.9666 95.6741 37.7748 95.8134C37.5657 95.9526 37.3042 96.1093 36.973 96.2659L38.2281 96.6141C38.0363 97.3103 37.8794 97.9022 37.7574 98.3896C37.6528 98.7725 37.4959 99.434 37.2868 100.374L37.2868 100.357ZM30.9942 94.3512C32.0749 94.6819 32.7373 94.8734 32.9813 94.9256C33.6088 95.0823 34.1144 95.1519 34.4978 95.1345C34.8813 95.1171 35.2299 94.9778 35.5263 94.7341C35.8226 94.473 36.0143 94.1597 36.1189 93.7768C36.2235 93.3764 36.1886 93.0109 36.0492 92.6627C35.9097 92.3146 35.6483 92.0013 35.2648 91.7402C34.8813 91.4791 34.463 91.2876 33.9923 91.1831C33.2951 91.0091 32.7024 91.0613 32.1795 91.3224C31.674 91.5835 31.3254 92.0709 31.1511 92.7846C31.0465 93.2197 30.9942 93.7419 30.9768 94.3686L30.9942 94.3512Z" fill="#15649E"/>
<path d="M41.6968 81.9401C40.2675 81.679 39.117 81.4875 38.2455 81.3831C38.7684 80.7216 39.1519 80.1298 39.4308 79.5728C39.7097 79.0332 39.9014 78.5283 40.006 78.0932C40.1455 77.5187 40.1803 77.0488 40.0932 76.6658C40.006 76.2829 39.7968 76.0566 39.4656 75.9695C39.3611 75.9347 39.239 75.9347 39.1345 75.9347C39.0299 75.9347 38.8904 75.9696 38.7335 76.0392C38.5767 76.0914 38.4024 76.1958 38.2106 76.3351L36.1189 77.7973C35.6308 78.1454 35.2997 78.3717 35.0905 78.5109C34.6721 78.772 34.2886 78.9635 33.94 79.0854C33.5914 79.2072 33.2777 79.2768 32.9465 79.2942C32.6153 79.3117 32.2841 79.2768 31.9529 79.1898C31.552 79.0854 31.1685 78.9113 30.8199 78.685C30.4713 78.4413 30.1575 78.1454 29.8961 77.7799C29.6346 77.4143 29.4428 76.9617 29.3034 76.4395C29.1814 75.9173 29.1291 75.3603 29.1814 74.8033C29.2337 74.2463 29.3208 73.6892 29.4603 73.1148C29.7392 72.0008 30.175 70.8171 30.7676 69.5638C31.2208 69.6509 31.6566 69.7379 32.0401 69.8075C32.4235 69.8772 33.1033 69.9816 34.0795 70.1209C33.6786 70.6605 33.3648 71.1827 33.1556 71.6526C32.929 72.1226 32.7722 72.5578 32.685 72.9059C32.563 73.4107 32.5456 73.8633 32.6502 74.2637C32.7547 74.6466 32.9465 74.8729 33.2428 74.96C33.3822 74.9948 33.5043 74.9948 33.6437 74.9774C33.7832 74.96 33.9575 74.8903 34.1666 74.7859C34.3758 74.6814 34.6024 74.5422 34.8639 74.3507C35.1253 74.1592 35.5263 73.8633 36.0492 73.463L36.7987 72.8885C37.0253 72.7145 37.2868 72.5404 37.6005 72.3663C37.9143 72.1923 38.1932 72.0356 38.4895 71.9138C38.7684 71.7919 39.0299 71.7049 39.2391 71.6701C39.4657 71.6179 39.6748 71.6004 39.884 71.6004C40.0932 71.6004 40.3198 71.6352 40.5464 71.6875C41.139 71.8441 41.6794 72.1227 42.1326 72.5404C42.6032 72.9582 42.9344 73.4804 43.161 74.0722C43.3702 74.6814 43.4748 75.3081 43.4574 75.9695C43.4399 76.631 43.3353 77.3099 43.161 77.9887C42.8996 79.0506 42.3941 80.3735 41.6794 81.9227L41.6968 81.9401Z" fill="#15649E"/>
<path d="M44.1895 60.2512C44.573 60.4426 45.4794 60.843 46.9436 61.4697C46.9087 62.2704 46.839 62.9492 46.7519 63.4714C46.6647 64.011 46.5601 64.5332 46.4207 65.0729C46.2289 65.8562 45.9849 66.5698 45.706 67.1965C45.4271 67.8231 45.0959 68.3453 44.695 68.7631C44.2941 69.1635 43.8583 69.4942 43.3528 69.7031C42.8648 69.9294 42.3069 70.0512 41.6969 70.0686C41.0868 70.086 40.4767 70.0338 39.8841 69.8771C39.0474 69.6683 38.263 69.2853 37.5309 68.7457C36.7988 68.2061 36.2933 67.6142 35.9621 66.9702C35.6483 66.3261 35.474 65.6299 35.4566 64.8988C35.4392 64.1677 35.5263 63.4192 35.7006 62.7055C35.8924 61.957 36.1538 61.2608 36.5024 60.6167C36.8511 59.9727 37.3043 59.4679 37.8621 59.1023C38.4198 58.7368 38.9951 58.5279 39.5877 58.4583C40.1804 58.3886 40.8079 58.4583 41.4354 58.5975C41.8189 58.6845 42.2198 58.8412 42.6556 59.0501L40.9125 65.978C41.0171 66.0128 41.1042 66.0302 41.1914 66.0651C41.906 66.2391 42.4813 66.1173 42.9519 65.6995C43.4225 65.2817 43.7363 64.6899 43.928 63.9588C44.0326 63.5236 44.1198 63.0188 44.1546 62.427C44.1895 61.8352 44.1895 61.1215 44.1546 60.2338L44.1895 60.2512ZM39.4657 65.5254L40.285 62.253C40.1804 62.2181 40.0758 62.1833 40.0061 62.1659C39.6574 62.0789 39.3437 62.0615 39.0822 62.1311C38.8033 62.1833 38.5767 62.3226 38.4199 62.514C38.2455 62.7055 38.1235 62.9492 38.0538 63.2451C38.0015 63.4366 37.9841 63.6455 38.0015 63.837C38.0015 64.0459 38.0712 64.2199 38.1584 64.4114C38.2455 64.5855 38.3501 64.7421 38.4896 64.8814C38.629 65.0206 38.751 65.1251 38.8905 65.2121C39.0299 65.2991 39.2217 65.3862 39.4657 65.508L39.4657 65.5254Z" fill="#15649E"/>
<path d="M47.205 48.2578C47.5885 48.4493 48.4949 48.8497 49.9591 49.4763C49.9242 50.2771 49.8545 50.9385 49.7674 51.4781C49.6802 52.0177 49.5756 52.5399 49.4362 53.0795C49.2444 53.8628 49.0004 54.5765 48.7215 55.2032C48.4426 55.8298 48.1114 56.352 47.7105 56.7698C47.3096 57.1701 46.8738 57.4835 46.3683 57.7098C45.8803 57.9361 45.3225 58.0579 44.7124 58.0753C44.1023 58.0927 43.4922 58.0405 42.8996 57.8838C42.0629 57.6749 41.2785 57.292 40.5464 56.7524C39.8143 56.2128 39.3088 55.6209 38.9776 54.9769C38.6464 54.3328 38.4895 53.6365 38.4721 52.9055C38.4721 52.157 38.5418 51.4259 38.7161 50.7122C38.9079 49.9637 39.1693 49.2674 39.5179 48.6234C39.8666 47.9793 40.3198 47.4746 40.8776 47.109C41.4353 46.7435 42.0106 46.5346 42.6032 46.4649C43.1959 46.3953 43.8234 46.4649 44.4509 46.6042C44.8344 46.6912 45.2353 46.8479 45.6711 47.0568L43.928 53.9847C44.0326 54.0195 44.1197 54.0369 44.2069 54.0717C44.9215 54.2458 45.4968 54.124 45.9674 53.7062C46.4381 53.2884 46.7518 52.6966 46.9436 51.9655C47.0481 51.5303 47.1353 51.0255 47.1701 50.4337C47.205 49.8593 47.205 49.1282 47.1701 48.2404L47.205 48.2578ZM42.4812 53.5321L43.3005 50.2596C43.1959 50.2248 43.0913 50.19 43.0216 50.1726C42.673 50.0856 42.3592 50.0682 42.0977 50.1378C41.8189 50.2074 41.5922 50.3293 41.4354 50.5207C41.2785 50.7122 41.139 50.9559 41.0693 51.2518C41.017 51.4433 40.9996 51.6522 41.017 51.8437C41.017 52.0526 41.0868 52.2266 41.1739 52.4181C41.2611 52.5921 41.3656 52.7488 41.5051 52.8881C41.6445 53.0273 41.7666 53.1318 41.906 53.2188C42.0455 53.3058 42.2372 53.3929 42.4812 53.5147L42.4812 53.5321Z" fill="#15649E"/>
<path d="M50.7435 46.8653C49.9242 46.5694 49.2444 46.3257 48.7389 46.1516C48.0417 45.9254 47.1527 45.6468 46.072 45.3161L43.7537 44.6198C42.7078 44.3065 41.6968 44.028 40.7207 43.7495C39.5702 43.4362 38.4547 43.1403 37.3739 42.8617C37.618 41.9392 37.7923 41.2429 37.9143 40.7903C38.0537 40.2507 38.2106 39.6241 38.3675 38.893C40.0583 39.4848 42.1675 40.1637 44.7124 40.9296C47.2573 41.6955 49.5931 42.3569 51.7371 42.8965C51.5279 43.6624 51.371 44.3065 51.2316 44.8287C51.0747 45.4379 50.9178 46.1168 50.7435 46.8653ZM46.1592 41.0688L44.1372 38.7537L42.4812 36.9782C42.7253 36.0731 42.8996 35.3768 43.0216 34.9068C43.1785 34.2628 43.3702 33.4969 43.5794 32.6091L45.6537 35.2202C46.1243 35.8294 46.6472 36.456 47.205 37.1175C48.1811 36.8738 50.3426 36.2297 53.6893 35.2027C53.4802 35.9686 53.3059 36.6649 53.149 37.2916C52.9921 37.9182 52.8178 38.6493 52.626 39.4674L51.2316 39.7633C50.7435 39.8678 50.3426 39.9722 50.0114 40.0592C49.8719 40.0941 48.9481 40.3377 47.2399 40.8077L46.1766 41.0688L46.1592 41.0688Z" fill="#15649E"/>
<path d="M53.393 23.6446C53.7765 23.8361 54.6829 24.2364 56.1471 24.8631C56.1122 25.6638 56.0425 26.3427 55.9554 26.8649C55.8682 27.3871 55.7636 27.9267 55.6242 28.4663C55.4324 29.2496 55.1884 29.9633 54.9095 30.5899C54.6306 31.2166 54.2994 31.7388 53.8985 32.1565C53.4976 32.5569 53.0618 32.8876 52.5563 33.0965C52.0683 33.3228 51.5104 33.4446 50.9004 33.462C50.2903 33.4794 49.6802 33.4272 49.0875 33.2706C48.2509 33.0617 47.4665 32.6787 46.7344 32.1391C46.0023 31.5995 45.4968 31.0077 45.1656 30.3636C44.8344 29.7196 44.6775 29.0233 44.6601 28.2922C44.6427 27.5437 44.7298 26.8126 44.9041 26.099C45.0959 25.3505 45.3573 24.6542 45.7059 24.0101C46.0546 23.3661 46.5078 22.8787 47.0655 22.4958C47.6233 22.1302 48.1986 21.9213 48.7912 21.8517C49.3839 21.7821 50.0114 21.8517 50.6389 21.9909C51.0224 22.078 51.4233 22.2346 51.8591 22.4435L50.116 29.3715C50.2206 29.4063 50.3077 29.4237 50.3949 29.4585C51.1095 29.6326 51.6847 29.5107 52.1554 29.0929C52.626 28.6752 52.9398 28.0833 53.1315 27.3523C53.2361 26.9171 53.3233 26.4123 53.3581 25.8204C53.393 25.246 53.393 24.5149 53.3581 23.6272L53.393 23.6446ZM48.6692 28.9189L49.4884 25.6464C49.3839 25.6116 49.2793 25.5768 49.2096 25.5594C48.861 25.4723 48.5646 25.4549 48.2857 25.5245C48.0068 25.5767 47.7802 25.716 47.6233 25.9075C47.449 26.099 47.327 26.3426 47.2573 26.6386C47.205 26.83 47.1876 27.0389 47.205 27.2304C47.205 27.4393 47.2747 27.6133 47.3619 27.8048C47.449 27.9789 47.5536 28.1356 47.6931 28.2748C47.8325 28.4141 47.9545 28.5185 48.094 28.6055C48.2334 28.6926 48.4252 28.7796 48.6692 28.9015L48.6692 28.9189Z" fill="#15649E"/>
<path d="M56.949 22.1998L52.6261 20.7899L50.116 20.0588C49.6628 19.9369 49.1922 19.8151 48.7215 19.6933C48.2335 19.5714 47.6408 19.4322 46.9262 19.2581C47.1353 18.4574 47.3096 17.8307 47.4317 17.3607C47.5711 16.8211 47.728 16.1771 47.8849 15.4634L49.0004 15.7941C48.7738 15.4634 48.617 15.2023 48.5124 14.9934C48.4078 14.7845 48.3381 14.5756 48.2683 14.3319C48.1986 14.0882 48.1812 13.8446 48.1812 13.6009C48.1812 13.3572 48.216 13.1135 48.2858 12.8524C48.3555 12.6087 48.4427 12.365 48.5821 12.0865C49.2968 12.2606 49.9069 12.3998 50.3775 12.4868L51.9289 12.8002C51.7371 13.1309 51.5977 13.4616 51.5105 13.775C51.4059 14.1753 51.3885 14.5234 51.4233 14.8367C51.4756 15.1501 51.5802 15.446 51.7545 15.7245C51.9288 16.003 52.1729 16.2467 52.5041 16.473C52.8178 16.6993 53.3582 16.9256 54.0903 17.1693C54.8398 17.413 55.694 17.6567 56.6701 17.9004C57.0187 17.9874 57.437 18.0744 57.96 18.1789C57.7857 18.8229 57.6114 19.4496 57.4545 20.111C57.2976 20.7551 57.1233 21.4339 56.949 22.1824L56.949 22.1998Z" fill="#15649E"/>
</svg>
